<svg version="1.2" xmlns="http://www.w3.org/2000/svg" viewBox="0 0 2560 1440" width="2560" height="1440">
	<title>Neues Projekt</title>
	<style>
		.s0 { fill: #4752c4 } 
	</style>
	<path id="dcHook" class="s0" aria-label="dcHook"  d="m403.7 511.2l-27.7 139.8c-18.9-26.6-49.4-37.1-86.6-37.1-87.2 0-161.5 74.3-161.5 174.2 0 90.5 64.4 140.4 124.9 140.4 32.7 0 59.9-12.2 81.5-33.2l-5.5 27.7h118.2l82.1-411.8zm-148.7 270.8c0-42.1 22.2-69.3 54.9-69.3 28.4 0 45 19.4 45 47.7 0 42.2-22.2 69.4-54.9 69.4-28.3 0-45-19.5-45-47.8zm426.2 146.5c71.6 0 127.7-31 157.7-84.3l-91.6-53.3c-14.4 28.3-32.2 38.9-56.6 38.9-31.1 0-47.8-20.6-47.8-49.4 0-40.5 24.5-67.7 58.3-67.7 21.1 0 39.4 10.5 50 38.8l106.5-48.8c-21.6-55-78.2-88.8-150.4-88.8-112.1 0-191.4 74.3-191.4 174.2 0 84.9 65.4 140.4 165.3 140.4zm495.7-394l-27.8 137.6h-121l27.8-137.6h-131l-77.7 388.5h131l28.8-143.2h121l-28.8 143.2h130.9l77.7-388.5zm290.9 394c110.4 0 189.2-74.3 189.2-174.2 0-84.9-64.4-140.4-164.8-140.4-110.5 0-189.3 74.3-189.3 174.2 0 84.9 64.4 140.4 164.9 140.4zm7.2-98.7c-28.3 0-45-19.5-45-47.8 0-42.1 22.2-69.3 55-69.3 28.3 0 44.9 19.4 44.9 47.7 0 42.2-22.2 69.4-54.9 69.4zm367.9 98.7c110.5 0 189.3-74.3 189.3-174.2 0-84.9-64.4-140.4-164.8-140.4-110.5 0-189.3 74.3-189.3 174.2 0 84.9 64.4 140.4 164.8 140.4zm7.3-98.7c-28.4 0-45-19.5-45-47.8 0-42.1 22.2-69.3 54.9-69.3 28.3 0 45 19.4 45 47.7 0 42.2-22.2 69.4-54.9 69.4zm611-210.4h-154.3l-98.2 86.6 38.8-194.8h-125.4l-82.1 411.8h125.4l11.6-58.3 32.2-29.9 52.2 88.2h147.1l-99.4-166.5z"/>
</svg>